# xmcd
#
# Track frame offsets:
#	150
#	13458
#	23117
#	39650
#	44974
#	63666
#	82502
#	87482
#	102156
#	116396
#	130866
#	153185
#
# Disc length: 2128 seconds
#
# Revision: 0
# Processed by: cddbd v1.5.2PL0 Copyright (c) Steve Scherf et al.
# Submitted via: EasyCDDAExtractor 16.0.6.1
#
DISCID=98084e0c
DTITLE=Συλλογικός δίσκος - Νησιώτικα-Victory 4
DYEAR=2003
DGENRE=Παραδοσιακή
TTITLE0=Σκουλαξινού Μαρία - Αρτεμώνας [παραδοσιακό]
TTITLE1=Μάγκελ Έλενα - Θάλασσα τους θαλασσινούς [παραδοσιακό]
TTITLE2=Κουκουλάρη Νίκη - Σιλιβριανό [παραδοσιακό]
TTITLE3=Μάγκελ Έλενα - Μάς πήρε το ποτάμι [παραδοσιακό]
TTITLE4=Άνευ ερμηνευτού - Αυθεντικός μπάλλος Σερίφου [Ναύτης Βαγγέλης]
TTITLE5=Σκουλαξινού Μαρία - Μπάλλος [παραδοσιακό]
TTITLE6=Μάγκελ Έλενα - Μού 'πανε πως παντρεύεται [παραδοσιακό]
TTITLE7=Βίλλας Νίκος - Ποταμός [Βίλλας Νίκος]
TTITLE8=Μάγκελ Έλενα - Καλέ συ Παναγιά μου [παραδοσιακό]
TTITLE9=Μάγκελ Έλενα - Το πλατανιώτικο νερό [παραδοσιακό]
TTITLE10=Κατράκος Βασίλειος - Παληά Γιαννούλα [παραδοσιακό]
TTITLE11=Μάγκελ Έλενα - Όταν περνάς γιατί τα μάτια χαμηλώνεις [παραδοσιακό]
EXTD=
EXTT0=
EXTT1=
EXTT2=
EXTT3=
EXTT4=
EXTT5=
EXTT6=
EXTT7=
EXTT8=
EXTT9=
EXTT10=
EXTT11=
PLAYORDER=
